<?xml version="1.0" encoding="utf-8"?>
<!-- Generator: Adobe Illustrator 21.0.1, SVG Export Plug-In . SVG Version: 6.00 Build 0)  -->
<svg version="1.1" id="Vector_Graphics" xmlns="http://www.w3.org/2000/svg" xmlns:xlink="http://www.w3.org/1999/xlink" x="0px"
	 y="0px" viewBox="0 0 666.1 498" style="enable-background:new 0 0 666.1 498;" xml:space="preserve">
<style type="text/css">
	.st0{fill:#BF0000;}
	.st1{fill:#0000BF;}
	.st2{fill:#FFFFFF;}
</style>
<g>
	<rect x="29.5" y="125" class="st0" width="386.2" height="248.4"/>
	<rect x="28.9" y="124.6" class="st1" width="178.1" height="138.3"/>
	<rect x="206.1" y="145.4" class="st2" width="209.6" height="18.5"/>
	<rect x="206.1" y="183.8" class="st2" width="209.6" height="18.5"/>
	<rect x="206.1" y="222.1" class="st2" width="209.6" height="18.5"/>
	<rect x="29.5" y="260.5" class="st2" width="386.2" height="18.5"/>
	<rect x="29.5" y="298.8" class="st2" width="386.2" height="18.5"/>
	<rect x="29.5" y="337.2" class="st2" width="386.2" height="18.5"/>
	<g>
		<g>
			<g>
				<polygon class="st2" points="41.9,135.5 39.3,132.4 42.8,132.4 44.5,129.1 46.1,132.4 49.7,132.4 47,135.5 48.4,139 44.5,137.4 
					40.6,139 				"/>
			</g>
			<g>
				<polygon class="st2" points="71.3,135.5 68.7,132.4 72.2,132.4 73.8,129.1 75.5,132.4 79.1,132.4 76.4,135.5 77.8,139 
					73.8,137.4 70,139 				"/>
			</g>
			<g>
				<polygon class="st2" points="100.7,135.5 98.1,132.4 101.6,132.4 103.2,129.1 104.9,132.4 108.4,132.4 105.8,135.5 107.1,139 
					103.2,137.4 99.4,139 				"/>
			</g>
			<g>
				<polygon class="st2" points="130.1,135.5 127.5,132.4 131,132.4 132.6,129.1 134.3,132.4 137.8,132.4 135.2,135.5 136.5,139 
					132.6,137.4 128.8,139 				"/>
			</g>
			<g>
				<polygon class="st2" points="159.4,135.5 156.9,132.4 160.4,132.4 162,129.1 163.7,132.4 167.2,132.4 164.6,135.5 165.9,139 
					162,137.4 158.1,139 				"/>
			</g>
			<g>
				<polygon class="st2" points="188.8,135.5 186.3,132.4 189.8,132.4 191.4,129.1 193,132.4 196.6,132.4 194,135.5 195.3,139 
					191.4,137.4 187.5,139 				"/>
			</g>
		</g>
		<g>
			<polygon class="st2" points="56.7,149.6 54.1,146.4 57.6,146.4 59.2,143.1 60.9,146.5 64.4,146.4 61.8,149.6 63.1,153 
				59.2,151.4 55.4,153 			"/>
		</g>
		<g>
			<polygon class="st2" points="86.3,149.6 83.8,146.4 87.3,146.4 88.9,143.1 90.5,146.5 94.1,146.4 91.5,149.6 92.8,153 
				88.9,151.4 85,153 			"/>
		</g>
		<g>
			<polygon class="st2" points="114.6,149.6 112,146.4 115.5,146.4 117.2,143.1 118.8,146.5 122.4,146.4 119.7,149.6 121.1,153 
				117.2,151.4 113.6,152.9 			"/>
		</g>
		<g>
			<polygon class="st2" points="144.3,149.6 141.7,146.4 145.2,146.4 146.8,143.1 148.5,146.5 152,146.4 149.4,149.6 150.7,153 
				146.8,151.4 143,153 			"/>
		</g>
		<g>
			<polygon class="st2" points="173.9,149.6 171.4,146.4 174.9,146.4 176.5,143.1 178.1,146.5 181.7,146.4 179.1,149.6 180.4,153 
				176.5,151.4 172.6,153 			"/>
		</g>
		<g>
			<polygon class="st2" points="56.7,177.8 54.1,174.7 57.6,174.7 59.2,171.4 60.9,174.7 64.4,174.7 61.8,177.8 63.1,181.3 
				59.2,179.6 55.4,181.3 			"/>
		</g>
		<g>
			<polygon class="st2" points="86.3,177.8 83.8,174.7 87.3,174.7 88.9,171.4 90.5,174.7 94.1,174.7 91.5,177.8 92.8,181.3 
				88.9,179.6 85,181.3 			"/>
		</g>
		<g>
			<polygon class="st2" points="114.6,177.8 112,174.7 115.5,174.7 117.2,171.4 118.8,174.7 122.4,174.7 119.7,177.8 121.1,181.3 
				117.2,179.6 113.3,181.3 			"/>
		</g>
		<g>
			<polygon class="st2" points="144.3,177.8 141.7,174.7 145.2,174.7 146.8,171.4 148.5,174.7 152,174.7 149.4,177.8 150.7,181.3 
				146.8,179.6 143,181.3 			"/>
		</g>
		<g>
			<polygon class="st2" points="173.9,177.8 171.4,174.7 174.9,174.7 176.5,171.4 178.1,174.7 181.7,174.7 179.1,177.8 180.4,181.3 
				176.5,179.6 172.6,181.3 			"/>
		</g>
		<g>
			<polygon class="st2" points="56.7,206.1 54.1,203 57.6,203 59.2,199.6 60.9,203 64.4,202.9 61.8,206.1 63.1,209.6 59.2,207.9 
				55.4,209.6 			"/>
		</g>
		<g>
			<polygon class="st2" points="86.3,206.1 83.8,203 87.3,203 88.9,199.6 90.5,203 94.1,202.9 91.5,206.1 92.8,209.6 88.9,207.9 
				85,209.6 			"/>
		</g>
		<g>
			<polygon class="st2" points="114.6,206.1 112,203 115.5,203 117.2,199.6 118.8,203 122.4,202.9 119.7,206.1 121.1,209.6 
				117.2,207.9 113.3,209.6 			"/>
		</g>
		<g>
			<polygon class="st2" points="144.3,206.1 141.7,203 145.2,203 146.8,199.6 148.5,203 152,202.9 149.4,206.1 150.7,209.6 
				146.8,207.9 143,209.6 			"/>
		</g>
		<g>
			<polygon class="st2" points="173.9,206.1 171.4,203 174.9,203 176.5,199.6 178.1,203 181.7,202.9 179.1,206.1 180.4,209.6 
				176.5,207.9 172.6,209.6 			"/>
		</g>
		<g>
			<polygon class="st2" points="56.7,234.3 54.1,231.2 57.6,231.2 59.2,227.9 60.9,231.2 64.4,231.2 61.8,234.3 63.1,237.8 
				59.2,236.2 55.4,237.8 			"/>
		</g>
		<g>
			<polygon class="st2" points="86.3,234.3 83.8,231.2 87.3,231.2 88.9,227.9 90.5,231.2 94.1,231.2 91.5,234.3 92.8,237.8 
				88.9,236.2 85,237.8 			"/>
		</g>
		<g>
			<polygon class="st2" points="114.6,234.3 112,231.2 115.5,231.2 117.2,227.9 118.8,231.2 122.4,231.2 119.7,234.3 121.1,237.8 
				117.2,236.2 113.3,237.8 			"/>
		</g>
		<g>
			<polygon class="st2" points="144.3,234.3 141.7,231.2 145.2,231.2 146.8,227.9 148.5,231.2 152,231.2 149.4,234.3 150.7,237.8 
				146.8,236.2 143,237.8 			"/>
		</g>
		<g>
			<polygon class="st2" points="173.9,234.3 171.4,231.2 174.9,231.2 176.5,227.9 178.1,231.2 181.7,231.2 179.1,234.3 180.4,237.8 
				176.5,236.2 172.6,237.8 			"/>
		</g>
		<g>
			<g>
				<polygon class="st2" points="41.9,163.8 39.3,160.7 42.8,160.7 44.5,157.3 46.1,160.7 49.7,160.7 47,163.8 48.4,167.3 
					44.5,165.6 40.6,167.3 				"/>
			</g>
			<g>
				<polygon class="st2" points="71.3,163.8 68.7,160.7 72.2,160.7 73.8,157.3 75.5,160.7 79.1,160.7 76.4,163.8 77.8,167.3 
					73.8,165.6 70,167.3 				"/>
			</g>
			<g>
				<polygon class="st2" points="100.7,163.8 98.1,160.7 101.6,160.7 103.2,157.3 104.9,160.7 108.4,160.7 105.8,163.8 107.1,167.3 
					103.2,165.6 99.4,167.3 				"/>
			</g>
			<g>
				<polygon class="st2" points="130.1,163.8 127.5,160.7 131,160.7 132.6,157.3 134.3,160.7 137.8,160.7 135.2,163.8 136.5,167.3 
					132.6,165.6 128.8,167.3 				"/>
			</g>
			<g>
				<polygon class="st2" points="159.4,163.8 156.9,160.7 160.4,160.7 162,157.3 163.7,160.7 167.2,160.7 164.6,163.8 165.9,167.3 
					162,165.6 158.1,167.3 				"/>
			</g>
			<g>
				<polygon class="st2" points="188.8,163.8 186.3,160.7 189.8,160.7 191.4,157.3 193,160.7 196.6,160.7 194,163.8 195.3,167.3 
					191.4,165.6 187.5,167.3 				"/>
			</g>
		</g>
		<g>
			<g>
				<polygon class="st2" points="41.9,192.1 39.3,188.9 42.8,188.9 44.5,185.6 46.1,188.9 49.7,188.9 47,192.1 48.4,195.5 
					44.5,193.9 40.6,195.5 				"/>
			</g>
			<g>
				<polygon class="st2" points="71.3,192.1 68.7,188.9 72.2,188.9 73.8,185.6 75.5,188.9 79.1,188.9 76.4,192.1 77.8,195.5 
					73.8,193.9 70,195.5 				"/>
			</g>
			<g>
				<polygon class="st2" points="100.7,192.1 98.1,188.9 101.6,188.9 103.2,185.6 104.9,188.9 108.4,188.9 105.8,192.1 107.1,195.5 
					103.2,193.9 99.4,195.5 				"/>
			</g>
			<g>
				<polygon class="st2" points="130.1,192.1 127.5,188.9 131,188.9 132.6,185.6 134.3,188.9 137.8,188.9 135.2,192.1 136.5,195.5 
					132.6,193.9 128.8,195.5 				"/>
			</g>
			<g>
				<polygon class="st2" points="159.4,192.1 156.9,188.9 160.4,188.9 162,185.6 163.7,188.9 167.2,188.9 164.6,192.1 165.9,195.5 
					162,193.9 158.1,195.5 				"/>
			</g>
			<g>
				<polygon class="st2" points="188.8,192.1 186.3,188.9 189.8,188.9 191.4,185.6 193,188.9 196.6,188.9 194,192.1 195.3,195.5 
					191.4,193.9 187.5,195.5 				"/>
			</g>
		</g>
		<g>
			<g>
				<polygon class="st2" points="41.9,220.3 39.3,217.2 42.8,217.2 44.5,213.9 46.1,217.2 49.7,217.2 47,220.3 48.4,223.8 
					44.5,222.1 40.6,223.8 				"/>
			</g>
			<g>
				<polygon class="st2" points="71.3,220.3 68.7,217.2 72.2,217.2 73.8,213.9 75.5,217.2 79.1,217.2 76.4,220.3 77.8,223.8 
					73.8,222.1 70,223.8 				"/>
			</g>
			<g>
				<polygon class="st2" points="100.7,220.3 98.1,217.2 101.6,217.2 103.2,213.9 104.9,217.2 108.4,217.2 105.8,220.3 107.1,223.8 
					103.2,222.1 99.4,223.8 				"/>
			</g>
			<g>
				<polygon class="st2" points="130.1,220.3 127.5,217.2 131,217.2 132.6,213.9 134.3,217.2 137.8,217.2 135.2,220.3 136.5,223.8 
					132.6,222.1 128.8,223.8 				"/>
			</g>
			<g>
				<polygon class="st2" points="159.4,220.3 156.9,217.2 160.4,217.2 162,213.9 163.7,217.2 167.2,217.2 164.6,220.3 165.9,223.8 
					162,222.1 158.1,223.8 				"/>
			</g>
			<g>
				<polygon class="st2" points="188.8,220.3 186.3,217.2 189.8,217.2 191.4,213.9 193,217.2 196.6,217.2 194,220.3 195.3,223.8 
					191.4,222.1 187.5,223.8 				"/>
			</g>
		</g>
		<g>
			<g>
				<polygon class="st2" points="41.9,248.6 39.3,245.4 42.8,245.4 44.5,242.1 46.1,245.4 49.7,245.4 47,248.6 48.4,252 44.5,250.4 
					40.6,252 				"/>
			</g>
			<g>
				<polygon class="st2" points="71.3,248.6 68.7,245.4 72.2,245.4 73.8,242.1 75.5,245.4 79.1,245.4 76.4,248.6 77.8,252 
					73.8,250.4 70,252 				"/>
			</g>
			<g>
				<polygon class="st2" points="100.7,248.6 98.1,245.4 101.6,245.4 103.2,242.1 104.9,245.4 108.4,245.4 105.8,248.6 107.1,252 
					103.2,250.4 99.4,252 				"/>
			</g>
			<g>
				<polygon class="st2" points="130.1,248.6 127.5,245.4 131,245.4 132.6,242.1 134.3,245.4 137.8,245.4 135.2,248.6 136.5,252 
					132.6,250.4 128.8,252 				"/>
			</g>
			<g>
				<polygon class="st2" points="159.4,248.6 156.9,245.4 160.4,245.4 162,242.1 163.7,245.4 167.2,245.4 164.6,248.6 165.9,252 
					162,250.4 158.1,252 				"/>
			</g>
			<g>
				<polygon class="st2" points="188.8,248.6 186.3,245.4 189.8,245.4 191.4,242.1 193,245.4 196.6,245.4 194,248.6 195.3,252 
					191.4,250.4 187.5,252 				"/>
			</g>
		</g>
		<path class="st2" d="M115.6,150.3"/>
	</g>
</g>
</svg>
